<svg width="20" height="20" viewBox="0 0 20 20" fill="none" xmlns="http://www.w3.org/2000/svg">
<path d="M5.66594 3.15626C6.1675 2.53189 6.29125 2.11001 6.23969 1.92439C6.20031 1.7847 6.01375 1.71251 6.01188 1.71251C5.84211 1.65672 5.69784 1.54214 5.60505 1.38942C5.51226 1.23669 5.47706 1.05585 5.50578 0.879472C5.5345 0.703092 5.62525 0.542763 5.76169 0.42736C5.89814 0.311957 6.0713 0.249065 6.25 0.250011C6.32564 0.250099 6.40084 0.261474 6.47312 0.283761C6.56687 0.312823 7.40219 0.595948 7.67219 1.48001C7.90281 2.23657 7.62063 3.11595 6.83406 4.0947C6.3325 4.71907 6.20875 5.14095 6.26031 5.32657C6.29969 5.46626 6.4825 5.53657 6.48438 5.53751C6.65383 5.59321 6.79789 5.70748 6.89069 5.85981C6.98349 6.01214 7.01896 6.19256 6.99074 6.36869C6.96251 6.54482 6.87244 6.70512 6.73668 6.82082C6.60092 6.93652 6.42837 7.00006 6.25 7.00001C6.17436 6.99992 6.09916 6.98855 6.02688 6.96626C5.93313 6.9372 5.09781 6.65407 4.82781 5.77001C4.59719 5.01345 4.87937 4.13407 5.66594 3.15626ZM8.57781 5.77095C8.84781 6.65501 9.68313 6.93814 9.77688 6.9672C9.84921 6.98917 9.92441 7.00023 10 7.00001C10.1784 7.00006 10.3509 6.93652 10.4867 6.82082C10.6224 6.70512 10.7125 6.54482 10.7407 6.36869C10.769 6.19256 10.7335 6.01214 10.6407 5.85981C10.5479 5.70748 10.4038 5.59321 10.2344 5.53751C10.2344 5.53751 10.0469 5.46626 10.0103 5.32657C9.95875 5.13907 10.0825 4.71907 10.5841 4.0947C11.3706 3.11595 11.6528 2.23657 11.4222 1.48001C11.1522 0.595948 10.3178 0.312823 10.2231 0.283761C10.1508 0.261474 10.0756 0.250099 10 0.250011C9.8218 0.249748 9.64933 0.312941 9.51349 0.42827C9.37765 0.543599 9.28731 0.703528 9.25865 0.879406C9.23 1.05528 9.2649 1.23562 9.35711 1.3881C9.44932 1.54059 9.59281 1.65526 9.76188 1.71157C9.76188 1.71157 9.94938 1.78376 9.98969 1.92345C10.0413 2.11095 9.9175 2.53095 9.41594 3.15532C8.62937 4.13407 8.34719 5.01345 8.57781 5.77001V5.77095ZM12.3278 5.77095C12.5978 6.65501 13.4331 6.93814 13.5269 6.9672C13.5992 6.98917 13.6744 7.00023 13.75 7.00001C13.9284 7.00006 14.1009 6.93652 14.2367 6.82082C14.3724 6.70512 14.4625 6.54482 14.4907 6.36869C14.519 6.19256 14.4835 6.01214 14.3907 5.85981C14.2979 5.70748 14.1538 5.59321 13.9844 5.53751C13.9844 5.53751 13.7969 5.46626 13.7603 5.32657C13.7087 5.13907 13.8325 4.71907 14.3341 4.0947C15.1206 3.11595 15.4028 2.23657 15.1722 1.48001C14.9022 0.595948 14.0678 0.312823 13.9731 0.283761C13.9008 0.261474 13.8256 0.250099 13.75 0.250011C13.5718 0.249748 13.3993 0.312941 13.2635 0.42827C13.1276 0.543599 13.0373 0.703528 13.0087 0.879406C12.98 1.05528 13.0149 1.23562 13.1071 1.3881C13.1993 1.54059 13.3428 1.65526 13.5119 1.71157C13.5119 1.71157 13.6994 1.78376 13.7397 1.92345C13.7913 2.11095 13.6675 2.53095 13.1659 3.15532C12.3794 4.13407 12.0972 5.01345 12.3278 5.77001V5.77095ZM19 8.50001H1C0.801088 8.50001 0.610322 8.57903 0.46967 8.71968C0.329018 8.86033 0.25 9.0511 0.25 9.25001C0.253295 11.0336 0.744149 12.7824 1.66948 14.3072C2.59481 15.832 3.9194 17.0748 5.5 17.9013V18.25C5.5 18.6478 5.65804 19.0294 5.93934 19.3107C6.22064 19.592 6.60218 19.75 7 19.75H13C13.3978 19.75 13.7794 19.592 14.0607 19.3107C14.342 19.0294 14.5 18.6478 14.5 18.25V17.9013C16.0806 17.0748 17.4052 15.832 18.3305 14.3072C19.2558 12.7824 19.7467 11.0336 19.75 9.25001C19.75 9.0511 19.671 8.86033 19.5303 8.71968C19.3897 8.57903 19.1989 8.50001 19 8.50001Z" fill="black"/>
</svg>
