<svg width="32" height="23" viewBox="0 0 32 23" fill="none" xmlns="http://www.w3.org/2000/svg">
<path d="M31.7874 7.63916L28.5974 1.25666C28.4799 1.02175 28.3173 0.812279 28.1188 0.640223C27.9203 0.468168 27.6899 0.336895 27.4407 0.253901C27.1915 0.170907 26.9284 0.137817 26.6664 0.156521C26.4044 0.175226 26.1486 0.245358 25.9137 0.362913L22.8049 1.91666L16.2562 0.184163C16.0882 0.140435 15.9117 0.140435 15.7437 0.184163L9.19495 1.91666L6.0862 0.362913C5.8513 0.245358 5.59554 0.175226 5.33354 0.156521C5.07154 0.137817 4.80841 0.170907 4.5592 0.253901C4.30998 0.336895 4.07956 0.468168 3.88108 0.640223C3.6826 0.812279 3.51996 1.02175 3.40245 1.25666L0.212445 7.63791C0.0948904 7.87281 0.0247582 8.12856 0.00605377 8.39057C-0.0126506 8.65257 0.0204391 8.9157 0.103433 9.16491C0.186428 9.41413 0.317701 9.64455 0.489756 9.84303C0.661811 10.0415 0.871278 10.2041 1.1062 10.3217L4.4812 12.0104L11.4174 16.9642C11.5197 17.0369 11.6345 17.0899 11.7562 17.1204L19.7562 19.1204C19.9237 19.1624 20.0993 19.1603 20.2658 19.1143C20.4323 19.0683 20.584 18.98 20.7062 18.8579L27.5899 11.9729L30.8924 10.3217C31.3666 10.0843 31.727 9.66844 31.8946 9.16543C32.0622 8.66241 32.0232 8.11343 31.7862 7.63916H31.7874ZM24.9262 11.8104L20.6249 8.36541C20.4323 8.2111 20.1893 8.13351 19.9428 8.14759C19.6964 8.16166 19.4638 8.26641 19.2899 8.44166C17.0637 10.6842 14.5824 10.4004 12.9999 9.40041L18.4049 4.15041H22.3812L25.7824 10.9517L24.9262 11.8104ZM5.1912 2.15041L7.74995 3.42791L4.5537 9.80916L1.99995 8.53291L5.1912 2.15041ZM19.6912 17.0417L12.4274 15.2267L6.27745 10.8342L9.77745 3.83416L15.9999 2.18541L17.2249 2.50916L11.5999 7.96916L11.5899 7.98041C11.3782 8.19215 11.2167 8.44874 11.1174 8.73124C11.0181 9.01373 10.9834 9.31493 11.0161 9.61259C11.0487 9.91026 11.1478 10.1968 11.3059 10.4511C11.4641 10.7053 11.6774 10.9208 11.9299 11.0817C14.4999 12.7229 17.6012 12.4567 20.0437 10.4567L23.4999 13.2329L19.6912 17.0417ZM27.4412 9.80791L24.2512 3.43291L26.8087 2.15041L29.9999 8.53291L27.4412 9.80791ZM16.4724 21.3917C16.4184 21.6078 16.2938 21.7997 16.1183 21.9369C15.9428 22.0742 15.7265 22.1489 15.5037 22.1492C15.4215 22.1491 15.3397 22.139 15.2599 22.1192L10.0512 20.8167C9.92937 20.7866 9.81439 20.7336 9.71245 20.6604L6.4187 18.3079C6.21617 18.1489 6.08279 17.9179 6.04633 17.663C6.00986 17.4081 6.07312 17.149 6.22294 16.9396C6.37275 16.7301 6.59757 16.5866 6.85058 16.5388C7.1036 16.491 7.3653 16.5426 7.5812 16.6829L10.7199 18.9254L15.7499 20.1804C16.0072 20.2448 16.2283 20.4086 16.3648 20.636C16.5012 20.8634 16.5417 21.1357 16.4774 21.3929L16.4724 21.3917Z" fill="white"/>
</svg>
