<svg width="22" height="23" viewBox="0 0 22 23" fill="none" xmlns="http://www.w3.org/2000/svg">
<path d="M21.0613 17.0175L17.6637 13.6191L14.2456 2.34188C14.1485 2.02077 13.9736 1.72857 13.7366 1.49117C13.4996 1.25376 13.2076 1.07849 12.8866 0.980861C12.5657 0.883236 12.2256 0.866276 11.8965 0.931484C11.5674 0.996692 11.2595 1.14206 11 1.3547C10.7405 1.14206 10.4326 0.996692 10.1035 0.931484C9.77441 0.866276 9.43432 0.883236 9.11335 0.980861C8.79238 1.07849 8.50044 1.25376 8.2634 1.49117C8.02635 1.72857 7.85152 2.02077 7.75437 2.34188L4.33625 13.62L0.938748 17.0175C0.657656 17.2988 0.499756 17.6802 0.499756 18.0778C0.499756 18.4755 0.657656 18.8569 0.938748 19.1381L4.00344 22.2028C4.14273 22.3421 4.3081 22.4527 4.49011 22.5281C4.67212 22.6035 4.86721 22.6423 5.06422 22.6423C5.26123 22.6423 5.45631 22.6035 5.63832 22.5281C5.82033 22.4527 5.98571 22.3421 6.125 22.2028L10.6512 17.6738C10.7767 17.548 10.8933 17.4136 11 17.2716C11.1067 17.4136 11.2233 17.548 11.3487 17.6738L15.875 22.2038C16.0143 22.3431 16.1797 22.4536 16.3617 22.529C16.5437 22.6044 16.7388 22.6432 16.9358 22.6432C17.1328 22.6432 17.3279 22.6044 17.5099 22.529C17.6919 22.4536 17.8573 22.3431 17.9966 22.2038L21.0613 19.1391C21.2006 18.9998 21.3111 18.8344 21.3865 18.6524C21.4619 18.4704 21.5007 18.2753 21.5007 18.0783C21.5007 17.8813 21.4619 17.6862 21.3865 17.5042C21.3111 17.3222 21.2006 17.1568 21.0613 17.0175ZM10.25 15.0253C10.2515 15.3212 10.1943 15.6144 10.0816 15.888C9.96896 16.1615 9.80314 16.41 9.59375 16.6191L7.31375 18.8925L4.25 15.8288L5.52969 14.5481C5.61702 14.4608 5.68142 14.3532 5.71719 14.235L9.18594 2.77688C9.22112 2.64938 9.30172 2.53915 9.41255 2.46697C9.52338 2.39478 9.65679 2.36562 9.78763 2.38499C9.91847 2.40436 10.0377 2.47091 10.1229 2.57211C10.208 2.67331 10.2533 2.80216 10.25 2.93438V15.0253ZM14.6975 18.9047L12.4062 16.6163C12.1969 16.4072 12.031 16.1587 11.9184 15.8852C11.8057 15.6116 11.7485 15.3184 11.75 15.0225V2.92876C11.75 2.79887 11.7967 2.67331 11.8816 2.57495C11.9664 2.4766 12.0838 2.41199 12.2123 2.39291C12.3407 2.37382 12.4718 2.40153 12.5816 2.47097C12.6913 2.54042 12.7725 2.64698 12.8103 2.77126L16.2791 14.2294C16.3148 14.3476 16.3792 14.4552 16.4666 14.5425L17.825 15.9009L14.6975 18.9047Z" fill="black"/>
</svg>
