<svg width="20" height="19" viewBox="0 0 20 19" fill="none" xmlns="http://www.w3.org/2000/svg">
<path d="M19.75 8.24979V8.99979C19.75 10.2831 19.4967 11.5538 19.0045 12.739C18.5124 13.9242 17.7911 15.0005 16.882 15.9064C15.973 16.8122 14.8941 17.5297 13.7071 18.0176C12.5202 18.5055 11.2486 18.7544 9.96531 18.7498C4.90281 18.732 0.777813 14.8067 0.297813 9.86416C0.292609 9.79978 0.304123 9.73514 0.331241 9.67651C0.358359 9.61789 0.400161 9.56726 0.452595 9.52954C0.505029 9.49182 0.566319 9.46828 0.630524 9.4612C0.694729 9.45413 0.759673 9.46376 0.819063 9.48916C1.49364 9.77234 2.24207 9.82827 2.95124 9.64848C3.66042 9.46869 4.29181 9.06296 4.75 8.4926C5.05022 8.86595 5.42664 9.17095 5.85413 9.38722C6.28163 9.60349 6.75034 9.72606 7.22898 9.74673C7.70762 9.76741 8.18516 9.68572 8.62971 9.50712C9.07426 9.32851 9.47558 9.05711 9.80688 8.71104C10.1105 9.20428 10.5233 9.62124 11.0134 9.92979C10.465 10.3494 10.0206 10.8897 9.7148 11.5088C9.40897 12.128 9.24993 12.8092 9.25 13.4998C9.24964 13.6038 9.27091 13.7067 9.31246 13.8021C9.35402 13.8974 9.41495 13.9831 9.49139 14.0536C9.56783 14.1242 9.6581 14.178 9.75648 14.2118C9.85485 14.2456 9.95917 14.2585 10.0628 14.2498C10.2531 14.2293 10.429 14.1386 10.5561 13.9954C10.6831 13.8522 10.7523 13.6668 10.75 13.4754C10.7564 12.684 11.0753 11.9272 11.6373 11.3698C12.1992 10.8125 12.9586 10.4998 13.75 10.4998C13.8528 10.5 13.9546 10.4791 14.049 10.4383C14.1434 10.3976 14.2284 10.3378 14.2987 10.2629C14.369 10.1879 14.4232 10.0992 14.4578 10.0024C14.4925 9.90558 14.5068 9.80269 14.5 9.7001C14.4832 9.50732 14.3942 9.32801 14.2507 9.19813C14.1073 9.06825 13.9201 8.9974 13.7266 8.99979H13C12.4033 8.99979 11.831 8.76273 11.409 8.34078C10.9871 7.91882 10.75 7.34652 10.75 6.74979V5.24979H16.75C17.5456 5.24979 18.3087 5.56586 18.8713 6.12846C19.4339 6.69107 19.75 7.45414 19.75 8.24979ZM2.19344 8.24979C3.20969 8.21229 4 7.34697 4 6.32979V4.17353C4 3.1526 3.20969 2.28728 2.19344 2.24978C1.94151 2.24058 1.69032 2.28228 1.45487 2.37238C1.21943 2.46248 1.00457 2.59913 0.823146 2.77416C0.641723 2.9492 0.497459 3.15902 0.398981 3.39109C0.300502 3.62315 0.249832 3.87269 0.25 4.12478V6.37479C0.249832 6.62688 0.300502 6.87642 0.398981 7.10848C0.497459 7.34055 0.641723 7.55037 0.823146 7.72541C1.00457 7.90044 1.21943 8.03709 1.45487 8.12719C1.69032 8.21729 1.94151 8.25899 2.19344 8.24979ZM7.44344 8.24979C8.45969 8.21322 9.25 7.34791 9.25 6.33072V1.92447C9.25 0.907285 8.45969 0.0419723 7.44344 0.00540977C7.19198 -0.00377511 6.94125 0.0377456 6.70618 0.127499C6.47111 0.217252 6.25651 0.353402 6.07517 0.527836C5.89382 0.702271 5.74944 0.911421 5.65063 1.14283C5.55181 1.37424 5.50059 1.62316 5.5 1.87478V6.37479C5.49983 6.62688 5.5505 6.87642 5.64898 7.10848C5.74746 7.34055 5.89172 7.55037 6.07315 7.72541C6.25457 7.90044 6.46943 8.03709 6.70487 8.12719C6.94032 8.21729 7.19151 8.25899 7.44344 8.24979ZM14.5 1.87478C14.5002 1.62269 14.4495 1.37315 14.351 1.14109C14.2525 0.909022 14.1083 0.699199 13.9269 0.524164C13.7454 0.349129 13.5306 0.212477 13.2951 0.122378C13.0597 0.0322786 12.8085 -0.00941688 12.5566 -0.00021536C11.5403 0.0372846 10.75 0.902597 10.75 1.91978V3.74979H14.125C14.2245 3.74979 14.3198 3.71028 14.3902 3.63995C14.4605 3.56962 14.5 3.47424 14.5 3.37479V1.87478Z" fill="black"/>
</svg>
