<svg width="24" height="19" viewBox="0 0 24 19" fill="none" xmlns="http://www.w3.org/2000/svg">
<path d="M22.5 17.5H21V10.75L21.2194 10.9694C21.3604 11.1101 21.5515 11.1891 21.7507 11.1889C21.9499 11.1887 22.1408 11.1094 22.2816 10.9684C22.4223 10.8275 22.5013 10.6363 22.5011 10.4371C22.5009 10.2379 22.4216 10.047 22.2806 9.90625L13.0603 0.688748C12.779 0.407656 12.3977 0.249756 12 0.249756C11.6023 0.249756 11.221 0.407656 10.9397 0.688748L1.71938 9.90625C1.57877 10.047 1.49983 10.2378 1.49991 10.4367C1.5 10.6357 1.57911 10.8264 1.71984 10.967C1.86057 11.1076 2.0514 11.1866 2.25033 11.1865C2.44927 11.1864 2.64002 11.1073 2.78062 10.9666L3 10.75V17.5H1.5C1.30109 17.5 1.11032 17.579 0.96967 17.7197C0.829018 17.8603 0.75 18.0511 0.75 18.25C0.75 18.4489 0.829018 18.6397 0.96967 18.7803C1.11032 18.921 1.30109 19 1.5 19H22.5C22.6989 19 22.8897 18.921 23.0303 18.7803C23.171 18.6397 23.25 18.4489 23.25 18.25C23.25 18.0511 23.171 17.8603 23.0303 17.7197C22.8897 17.579 22.6989 17.5 22.5 17.5ZM14.25 17.5H9.75V13C9.75 12.9005 9.78951 12.8052 9.85983 12.7348C9.93016 12.6645 10.0255 12.625 10.125 12.625H13.875C13.9745 12.625 14.0698 12.6645 14.1402 12.7348C14.2105 12.8052 14.25 12.9005 14.25 13V17.5Z" fill="black"/>
</svg>
