<svg width="17" height="22" viewBox="0 0 17 22" fill="none" xmlns="http://www.w3.org/2000/svg">
<path d="M12.9999 20.75C12.9999 20.9489 12.9209 21.1396 12.7802 21.2803C12.6396 21.4209 12.4488 21.5 12.2499 21.5H4.74988C4.55097 21.5 4.3602 21.4209 4.21955 21.2803C4.0789 21.1396 3.99988 20.9489 3.99988 20.75C3.99988 20.551 4.0789 20.3603 4.21955 20.2196C4.3602 20.079 4.55097 20 4.74988 20H12.2499C12.4488 20 12.6396 20.079 12.7802 20.2196C12.9209 20.3603 12.9999 20.551 12.9999 20.75ZM16.7499 8.74995C16.7531 10.0002 16.4707 11.2347 15.9241 12.3592C15.3775 13.4837 14.5813 14.4685 13.5961 15.2384C13.4119 15.3796 13.2624 15.561 13.1591 15.7688C13.0558 15.9767 13.0013 16.2054 12.9999 16.4375V17C12.9999 17.3978 12.8418 17.7793 12.5605 18.0606C12.2792 18.3419 11.8977 18.5 11.4999 18.5H5.49988C5.10205 18.5 4.72052 18.3419 4.43922 18.0606C4.15791 17.7793 3.99988 17.3978 3.99988 17V16.4375C3.99972 16.2081 3.947 15.9819 3.84575 15.7762C3.74449 15.5704 3.59742 15.3906 3.41582 15.2506C2.43313 14.4852 1.63742 13.5064 1.08892 12.3881C0.54042 11.2698 0.2535 10.0414 0.249879 8.79589C0.225504 4.32777 3.83675 0.606828 8.30113 0.499953C9.40114 0.473445 10.4953 0.667253 11.5193 1.06997C12.5433 1.47269 13.4764 2.07617 14.2637 2.84491C15.0509 3.61365 15.6765 4.53211 16.1034 5.54622C16.5304 6.56034 16.7502 7.64962 16.7499 8.74995ZM13.7396 7.87433C13.5451 6.78804 13.0225 5.78742 12.242 5.00717C11.4616 4.22692 10.4609 3.70451 9.37457 3.51027C9.27743 3.49389 9.17802 3.49681 9.08201 3.51886C8.986 3.5409 8.89527 3.58164 8.81501 3.63875C8.73474 3.69586 8.66651 3.76821 8.61421 3.85169C8.56191 3.93517 8.52657 4.02813 8.51019 4.12527C8.49382 4.2224 8.49674 4.32181 8.51878 4.41782C8.54082 4.51383 8.58156 4.60456 8.63867 4.68482C8.69578 4.76509 8.76814 4.83332 8.85162 4.88562C8.93509 4.93792 9.02805 4.97327 9.12519 4.98964C10.6786 5.2512 11.9968 6.56933 12.2602 8.12558C12.2899 8.30026 12.3804 8.45879 12.5158 8.57307C12.6512 8.68736 12.8227 8.75002 12.9999 8.74995C13.0423 8.7497 13.0846 8.74625 13.1264 8.73964C13.3225 8.70617 13.4972 8.59621 13.6122 8.43394C13.7272 8.27167 13.773 8.07038 13.7396 7.87433Z" fill="white"/>
</svg>
