<svg width="22" height="17" viewBox="0 0 22 17" fill="none" xmlns="http://www.w3.org/2000/svg">
<path d="M20.75 11.8926H20V2.89258C20 2.29584 19.7629 1.72354 19.341 1.30159C18.919 0.879631 18.3467 0.642578 17.75 0.642578H4.25C3.65326 0.642578 3.08097 0.879631 2.65901 1.30159C2.23705 1.72354 2 2.29584 2 2.89258V11.8926H1.25C1.05109 11.8926 0.860322 11.9716 0.71967 12.1122C0.579018 12.2529 0.5 12.4437 0.5 12.6426V14.1426C0.5 14.7393 0.737053 15.3116 1.15901 15.7336C1.58097 16.1555 2.15326 16.3926 2.75 16.3926H19.25C19.8467 16.3926 20.419 16.1555 20.841 15.7336C21.2629 15.3116 21.5 14.7393 21.5 14.1426V12.6426C21.5 12.4437 21.421 12.2529 21.2803 12.1122C21.1397 11.9716 20.9489 11.8926 20.75 11.8926ZM9.5 2.89258H12.5C12.6989 2.89258 12.8897 2.9716 13.0303 3.11225C13.171 3.2529 13.25 3.44367 13.25 3.64258C13.25 3.84149 13.171 4.03226 13.0303 4.17291C12.8897 4.31356 12.6989 4.39258 12.5 4.39258H9.5C9.30109 4.39258 9.11032 4.31356 8.96967 4.17291C8.82902 4.03226 8.75 3.84149 8.75 3.64258C8.75 3.44367 8.82902 3.2529 8.96967 3.11225C9.11032 2.9716 9.30109 2.89258 9.5 2.89258ZM20 14.1426C20 14.3415 19.921 14.5323 19.7803 14.6729C19.6397 14.8136 19.4489 14.8926 19.25 14.8926H2.75C2.55109 14.8926 2.36032 14.8136 2.21967 14.6729C2.07902 14.5323 2 14.3415 2 14.1426V13.3926H20V14.1426Z" fill="black"/>
</svg>
