<svg width="20" height="21" viewBox="0 0 20 21" fill="none" xmlns="http://www.w3.org/2000/svg">
<path d="M18.9613 0.660275C18.8719 0.589417 18.7673 0.540193 18.6557 0.516448C18.5442 0.492704 18.4286 0.495083 18.3181 0.5234L6.31813 3.5234C6.15603 3.56392 6.0121 3.6574 5.90918 3.78903C5.80626 3.92065 5.75024 4.08288 5.75 4.24996V14.5718C5.12428 14.1538 4.37678 13.9568 3.62628 14.0123C2.87579 14.0677 2.16535 14.3724 1.60788 14.8779C1.05041 15.3834 0.677877 16.0608 0.549486 16.8023C0.421096 17.5438 0.544212 18.3069 0.89927 18.9704C1.25433 19.634 1.82096 20.1598 2.50912 20.4643C3.19728 20.7689 3.96749 20.8347 4.69735 20.6514C5.42721 20.468 6.07485 20.046 6.53736 19.4523C6.99986 18.8587 7.2507 18.1275 7.25 17.375V8.5859L17.75 5.9609V11.5718C17.1243 11.1538 16.3768 10.9568 15.6263 11.0123C14.8758 11.0677 14.1654 11.3724 13.6079 11.8779C13.0504 12.3834 12.6779 13.0608 12.5495 13.8023C12.4211 14.5438 12.5442 15.3069 12.8993 15.9704C13.2543 16.634 13.821 17.1598 14.5091 17.4643C15.1973 17.7689 15.9675 17.8347 16.6973 17.6514C17.4272 17.468 18.0749 17.046 18.5374 16.4523C18.9999 15.8587 19.2507 15.1275 19.25 14.375V1.24996C19.2497 1.13621 19.2236 1.024 19.1736 0.921842C19.1236 0.819679 19.051 0.730233 18.9613 0.660275Z" fill="black"/>
</svg>
