<svg width="20" height="20" viewBox="0 0 20 20" fill="none" xmlns="http://www.w3.org/2000/svg">
<path d="M16.8222 3.19477C15.0069 1.39719 12.5547 0.389964 10 0.392583H9.89969C7.33125 0.41901 4.87699 1.45789 3.07015 3.28352C1.26331 5.10914 0.249864 7.57401 0.25 10.1426C0.25 14.1738 2.74187 17.5545 6.7525 18.971C7.20485 19.1305 7.68885 19.1792 8.16391 19.113C8.63897 19.0468 9.09123 18.8677 9.48278 18.5907C9.87432 18.3137 10.1937 17.9468 10.4142 17.5208C10.6347 17.0948 10.7499 16.6222 10.75 16.1426C10.75 15.7448 10.908 15.3632 11.1893 15.0819C11.4706 14.8006 11.8522 14.6426 12.25 14.6426H16.5822C17.2627 14.6459 17.9239 14.4163 18.4559 13.992C18.988 13.5678 19.3589 12.9743 19.5072 12.3101C19.6748 11.572 19.7563 10.8169 19.75 10.0601C19.7404 8.77896 19.4767 7.51246 18.9742 6.33399C18.4716 5.15551 17.7401 4.0885 16.8222 3.19477ZM5.875 13.8926C5.6525 13.8926 5.43499 13.8266 5.24998 13.703C5.06498 13.5794 4.92078 13.4037 4.83564 13.1981C4.75049 12.9925 4.72821 12.7663 4.77162 12.5481C4.81502 12.3299 4.92217 12.1294 5.0795 11.9721C5.23684 11.8148 5.43729 11.7076 5.65552 11.6642C5.87375 11.6208 6.09995 11.6431 6.30552 11.7282C6.51109 11.8134 6.68679 11.9576 6.8104 12.1426C6.93402 12.3276 7 12.5451 7 12.7676C7 13.066 6.88147 13.3521 6.67049 13.5631C6.45952 13.7741 6.17337 13.8926 5.875 13.8926ZM5.875 8.64258C5.6525 8.64258 5.43499 8.5766 5.24998 8.45299C5.06498 8.32937 4.92078 8.15367 4.83564 7.9481C4.75049 7.74254 4.72821 7.51634 4.77162 7.29811C4.81502 7.07988 4.92217 6.87942 5.0795 6.72209C5.23684 6.56475 5.43729 6.45761 5.65552 6.4142C5.87375 6.37079 6.09995 6.39307 6.30552 6.47822C6.51109 6.56337 6.68679 6.70756 6.8104 6.89257C6.93402 7.07757 7 7.29508 7 7.51758C7 7.81595 6.88147 8.1021 6.67049 8.31308C6.45952 8.52406 6.17337 8.64258 5.875 8.64258ZM10 6.39258C9.7775 6.39258 9.55999 6.3266 9.37498 6.20299C9.18998 6.07937 9.04578 5.90367 8.96063 5.6981C8.87549 5.49254 8.85321 5.26634 8.89662 5.04811C8.94002 4.82988 9.04717 4.62942 9.2045 4.47209C9.36184 4.31475 9.56229 4.20761 9.78052 4.1642C9.99875 4.12079 10.225 4.14307 10.4305 4.22822C10.6361 4.31337 10.8118 4.45756 10.9354 4.64257C11.059 4.82757 11.125 5.04508 11.125 5.26758C11.125 5.56595 11.0065 5.8521 10.7955 6.06308C10.5845 6.27406 10.2984 6.39258 10 6.39258ZM14.125 8.64258C13.9025 8.64258 13.685 8.5766 13.5 8.45299C13.315 8.32937 13.1708 8.15367 13.0856 7.9481C13.0005 7.74254 12.9782 7.51634 13.0216 7.29811C13.065 7.07988 13.1722 6.87942 13.3295 6.72209C13.4868 6.56475 13.6873 6.45761 13.9055 6.4142C14.1238 6.37079 14.35 6.39307 14.5555 6.47822C14.7611 6.56337 14.9368 6.70756 15.0604 6.89257C15.184 7.07757 15.25 7.29508 15.25 7.51758C15.25 7.81595 15.1315 8.1021 14.9205 8.31308C14.7095 8.52406 14.4234 8.64258 14.125 8.64258Z" fill="black"/>
</svg>
