<svg width="26" height="28" viewBox="0 0 26 28" fill="none" xmlns="http://www.w3.org/2000/svg">
<path d="M16.0001 8.15039C16.7912 8.15039 17.5646 7.9158 18.2224 7.47627C18.8802 7.03675 19.3929 6.41203 19.6956 5.68113C19.9984 4.95022 20.0776 4.14596 19.9232 3.37003C19.7689 2.59411 19.3879 1.88138 18.8285 1.32196C18.2691 0.762555 17.5564 0.381592 16.7805 0.227251C16.0045 0.0729104 15.2003 0.152124 14.4694 0.454874C13.7385 0.757625 13.1138 1.27031 12.6742 1.92811C12.2347 2.58591 12.0001 3.35927 12.0001 4.15039C12.0001 5.21126 12.4215 6.22867 13.1717 6.97882C13.9218 7.72897 14.9392 8.15039 16.0001 8.15039ZM16.0001 2.15039C16.3957 2.15039 16.7824 2.26769 17.1112 2.48745C17.4401 2.70722 17.6965 3.01957 17.8479 3.38503C17.9992 3.75048 18.0388 4.15261 17.9617 4.54057C17.8845 4.92854 17.694 5.2849 17.4143 5.56461C17.1346 5.84431 16.7783 6.03479 16.3903 6.11196C16.0023 6.18913 15.6002 6.14953 15.2347 5.99815C14.8693 5.84678 14.5569 5.59043 14.3372 5.26153C14.1174 4.93263 14.0001 4.54596 14.0001 4.15039C14.0001 3.61996 14.2108 3.11125 14.5859 2.73618C14.961 2.36111 15.4697 2.15039 16.0001 2.15039ZM24.4139 14.7354C24.3376 14.7704 23.4776 15.1454 21.9551 15.1454C20.2239 15.1454 17.6364 14.6604 14.3689 12.6454C13.8715 14.0572 13.2258 15.4123 12.4426 16.6879C13.8494 17.121 15.1727 17.7892 16.3564 18.6641C18.7401 20.4816 20.0001 23.0691 20.0001 26.1504C20.0001 26.4156 19.8948 26.67 19.7072 26.8575C19.5197 27.045 19.2653 27.1504 19.0001 27.1504C18.7349 27.1504 18.4805 27.045 18.293 26.8575C18.1055 26.67 18.0001 26.4156 18.0001 26.1504C18.0001 20.9379 13.6639 19.0616 11.2326 18.4191C11.1639 18.5066 11.0926 18.5954 11.0214 18.6816C8.56636 21.6566 5.49011 23.2041 2.06761 23.2041C1.67778 23.206 1.28812 23.188 0.900108 23.1504C0.634891 23.1239 0.391073 22.9931 0.22229 22.7868C0.0535077 22.5805 -0.0264138 22.3156 0.000107873 22.0504C0.0266295 21.7852 0.157422 21.5414 0.363712 21.3726C0.570002 21.2038 0.834891 21.1239 1.10011 21.1504C4.34011 21.4729 7.15886 20.2141 9.47511 17.4004C11.0364 15.5079 12.1001 13.1991 12.6314 11.5254C7.76636 8.69414 4.65886 11.1041 4.62511 11.1304C4.52324 11.2174 4.40494 11.283 4.27722 11.3234C4.1495 11.3638 4.01497 11.3781 3.88162 11.3655C3.74826 11.3529 3.6188 11.3136 3.50091 11.25C3.38303 11.1864 3.27912 11.0998 3.19536 10.9952C3.1116 10.8907 3.0497 10.7704 3.01332 10.6415C2.97694 10.5126 2.96684 10.3777 2.9836 10.2448C3.00037 10.1119 3.04366 9.98368 3.11092 9.86784C3.17817 9.752 3.26801 9.65085 3.37511 9.57039C3.56261 9.42039 8.02761 5.94539 14.5639 10.3916C20.2476 14.2554 23.5551 12.9304 23.5864 12.9154C23.7062 12.8588 23.836 12.8266 23.9684 12.8206C24.1007 12.8147 24.233 12.8351 24.3574 12.8807C24.4818 12.9262 24.5959 12.9961 24.6931 13.0861C24.7902 13.1762 24.8686 13.2846 24.9235 13.4052C24.9784 13.5258 25.0088 13.6561 25.0129 13.7885C25.017 13.9209 24.9948 14.0529 24.9475 14.1766C24.9002 14.3004 24.8288 14.4135 24.7374 14.5094C24.646 14.6054 24.5364 14.6822 24.4151 14.7354H24.4139Z" fill="white"/>
</svg>
