<svg width="18" height="22" viewBox="0 0 18 22" fill="none" xmlns="http://www.w3.org/2000/svg">
<path d="M11.25 21.0002C11.25 21.1991 11.171 21.3899 11.0303 21.5305C10.8897 21.6712 10.6989 21.7502 10.5 21.7502H7.49998C7.30106 21.7502 7.1103 21.6712 6.96965 21.5305C6.82899 21.3899 6.74998 21.1991 6.74998 21.0002C6.74998 20.8013 6.82899 20.6105 6.96965 20.4699C7.1103 20.3292 7.30106 20.2502 7.49998 20.2502H10.5C10.6989 20.2502 10.8897 20.3292 11.0303 20.4699C11.171 20.6105 11.25 20.8013 11.25 21.0002ZM17.9643 14.6093L16.8056 19.8246C16.7506 20.0722 16.6337 20.3019 16.4659 20.4921C16.298 20.6823 16.0846 20.8268 15.8457 20.9121C15.6068 20.9975 15.3502 21.0208 15.0998 20.98C14.8494 20.9391 14.6135 20.8354 14.414 20.6786L11.8603 18.7502H6.14154L3.58591 20.6786C3.38649 20.8354 3.15056 20.9391 2.90018 20.98C2.6498 21.0208 2.39315 20.9975 2.15424 20.9121C1.91533 20.8268 1.70196 20.6823 1.53408 20.4921C1.36621 20.3019 1.24932 20.0722 1.19435 19.8246L0.0355995 14.6093C-0.0135523 14.3854 -0.011069 14.1534 0.0428615 13.9307C0.096792 13.708 0.200752 13.5005 0.34685 13.3239L3.02435 10.1121C3.11422 8.9317 3.3852 7.77219 3.82779 6.67426C5.03716 3.64238 7.20279 1.74019 8.08123 1.06332C8.34416 0.859584 8.66735 0.749023 8.99998 0.749023C9.3326 0.749023 9.65579 0.859584 9.91873 1.06332C10.7944 1.74019 12.9628 3.64238 14.1722 6.67426C14.6148 7.77219 14.8857 8.9317 14.9756 10.1121L17.6531 13.3239C17.7992 13.5005 17.9032 13.708 17.9571 13.9307C18.011 14.1534 18.0135 14.3854 17.9643 14.6093ZM4.91154 17.7968C3.90466 15.9636 3.29341 14.1614 3.07779 12.3902L1.49997 14.2839L2.65872 19.5002L2.6756 19.488L4.91154 17.7968ZM10.125 9.37519C10.125 9.15269 10.059 8.93518 9.93538 8.75018C9.81176 8.56517 9.63606 8.42098 9.43049 8.33583C9.22493 8.25068 8.99873 8.2284 8.7805 8.27181C8.56227 8.31522 8.36181 8.42236 8.20448 8.5797C8.04715 8.73703 7.94 8.93749 7.89659 9.15572C7.85318 9.37394 7.87546 9.60014 7.96061 9.80571C8.04576 10.0113 8.18995 10.187 8.37496 10.3106C8.55996 10.4342 8.77747 10.5002 8.99998 10.5002C9.29834 10.5002 9.58449 10.3817 9.79547 10.1707C10.0064 9.95971 10.125 9.67356 10.125 9.37519ZM16.5 14.2839L14.9222 12.3902C14.7084 14.1577 14.0972 15.9605 13.0884 17.7986L15.3244 19.4861L15.3412 19.4983L16.5 14.2839Z" fill="black"/>
</svg>
