<svg width="24" height="18" viewBox="0 0 24 18" fill="none" xmlns="http://www.w3.org/2000/svg">
<path d="M23.2116 2.73938L18.3591 0.09375C18.2492 0.0329152 18.1257 0.000678433 18.0001 0H15.0001C14.8011 0 14.6104 0.0790178 14.4697 0.21967C14.3291 0.360322 14.2501 0.551088 14.2501 0.75C14.2501 1.34674 14.013 1.91903 13.5911 2.34099C13.1691 2.76295 12.5968 3 12.0001 3C11.4033 3 10.831 2.76295 10.4091 2.34099C9.98711 1.91903 9.75006 1.34674 9.75006 0.75C9.75006 0.551088 9.67104 0.360322 9.53039 0.21967C9.38974 0.0790178 9.19897 0 9.00006 0H6.00006C5.87409 0.000521314 5.75028 0.0327631 5.64006 0.09375L0.788498 2.73938C0.442655 2.92214 0.183403 3.2346 0.0675886 3.60823C-0.0482259 3.98186 -0.0111505 4.38617 0.170685 4.7325L1.97725 8.18344C2.10861 8.43155 2.3055 8.63887 2.54651 8.78284C2.78751 8.92682 3.06339 9.00193 3.34412 9H5.25006V16.5C5.25006 16.8978 5.4081 17.2794 5.6894 17.5607C5.9707 17.842 6.35224 18 6.75006 18H17.2501C17.6479 18 18.0294 17.842 18.3107 17.5607C18.592 17.2794 18.7501 16.8978 18.7501 16.5V9H20.6569C20.9377 9.00193 21.2135 8.92682 21.4546 8.78284C21.6956 8.63887 21.8925 8.43155 22.0238 8.18344L23.8304 4.7325C24.0121 4.38605 24.0491 3.98165 23.9331 3.60801C23.8171 3.23437 23.5576 2.92198 23.2116 2.73938ZM3.34412 7.5C3.33027 7.50065 3.31663 7.49633 3.30569 7.48781L1.5085 4.05563L5.25006 2.01375V7.5H3.34412ZM20.6944 7.48688C20.6893 7.49155 20.6832 7.49513 20.6766 7.49738C20.67 7.49964 20.663 7.50053 20.656 7.5H18.7501V2.01375L22.4926 4.05563L20.6944 7.48688Z" fill="black"/>
</svg>
