<svg width="26" height="27" viewBox="0 0 26 27" fill="none" xmlns="http://www.w3.org/2000/svg">
<path d="M0.4 12.9503C0.505058 13.029 0.624606 13.0864 0.751819 13.119C0.879032 13.1516 1.01142 13.1588 1.14142 13.1402C1.27142 13.1216 1.39649 13.0776 1.50949 13.0107C1.62249 12.9438 1.72121 12.8553 1.8 12.7503C2.40546 11.943 3.19055 11.2878 4.09311 10.8365C4.99567 10.3852 5.99091 10.1503 7 10.1503C8.00909 10.1503 9.00433 10.3852 9.90689 10.8365C10.8094 11.2878 11.5945 11.943 12.2 12.7503C12.3593 12.9622 12.5963 13.1023 12.8588 13.1395C13.1214 13.1768 13.388 13.1083 13.6 12.949C13.6756 12.8928 13.7425 12.8258 13.7987 12.7503C14.4042 11.943 15.1893 11.2878 16.0919 10.8365C16.9944 10.3852 17.9897 10.1503 18.9988 10.1503C20.0078 10.1503 21.0031 10.3852 21.9056 10.8365C22.8082 11.2878 23.5933 11.943 24.1987 12.7503C24.358 12.9624 24.5951 13.1026 24.8578 13.14C25.1204 13.1774 25.3872 13.1089 25.5994 12.9496C25.8115 12.7903 25.9518 12.5533 25.9891 12.2906C26.0265 12.0279 25.958 11.7612 25.7987 11.549C24.9136 10.3623 23.7332 9.42804 22.375 8.839C23.1196 8.15918 23.6413 7.27011 23.8716 6.2885C24.1019 5.30688 24.03 4.27857 23.6654 3.33853C23.3009 2.39848 22.6606 1.59062 21.8287 1.02097C20.9967 0.451314 20.012 0.146484 19.0037 0.146484C17.9955 0.146484 17.0108 0.451314 16.1788 1.02097C15.3469 1.59062 14.7066 2.39848 14.3421 3.33853C13.9775 4.27857 13.9056 5.30688 14.1359 6.2885C14.3662 7.27011 14.8879 8.15918 15.6325 8.839C14.6518 9.26306 13.7609 9.87014 13.0075 10.6278C12.2541 9.87014 11.3632 9.26306 10.3825 8.839C11.1271 8.15918 11.6488 7.27011 11.8791 6.2885C12.1094 5.30688 12.0375 4.27857 11.6729 3.33853C11.3084 2.39848 10.6681 1.59062 9.83616 1.02097C9.00423 0.451314 8.01952 0.146484 7.01125 0.146484C6.00298 0.146484 5.01827 0.451314 4.18634 1.02097C3.35442 1.59062 2.71415 2.39848 2.34957 3.33853C1.98499 4.27857 1.91313 5.30688 2.14342 6.2885C2.37371 7.27011 2.89539 8.15918 3.64 8.839C2.27581 9.42612 1.08963 10.361 0.2 11.5503C0.121207 11.6553 0.0638779 11.7749 0.0312863 11.9021C-0.00130532 12.0293 -0.00852115 12.1617 0.0100506 12.2917C0.0286223 12.4217 0.072618 12.5467 0.139526 12.6597C0.206433 12.7727 0.294943 12.8715 0.4 12.9503ZM19 2.15025C19.5933 2.15025 20.1734 2.3262 20.6667 2.65584C21.1601 2.98549 21.5446 3.45402 21.7716 4.0022C21.9987 4.55038 22.0581 5.15358 21.9424 5.73552C21.8266 6.31746 21.5409 6.85201 21.1213 7.27157C20.7018 7.69113 20.1672 7.97685 19.5853 8.09261C19.0033 8.20836 18.4001 8.14895 17.8519 7.92189C17.3038 7.69483 16.8352 7.31031 16.5056 6.81696C16.1759 6.32361 16 5.74359 16 5.15025C16 4.3546 16.3161 3.59154 16.8787 3.02893C17.4413 2.46632 18.2044 2.15025 19 2.15025ZM7 2.15025C7.59334 2.15025 8.17336 2.3262 8.66671 2.65584C9.16006 2.98549 9.54458 3.45402 9.77164 4.0022C9.9987 4.55038 10.0581 5.15358 9.94236 5.73552C9.8266 6.31746 9.54088 6.85201 9.12132 7.27157C8.70176 7.69113 8.16721 7.97685 7.58527 8.09261C7.00333 8.20836 6.40013 8.14895 5.85195 7.92189C5.30377 7.69483 4.83524 7.31031 4.50559 6.81696C4.17595 6.32361 4 5.74359 4 5.15025C4 4.3546 4.31607 3.59154 4.87868 3.02893C5.44129 2.46632 6.20435 2.15025 7 2.15025ZM22.375 21.839C23.1196 21.1592 23.6413 20.2701 23.8716 19.2885C24.1019 18.3069 24.03 17.2786 23.6654 16.3385C23.3009 15.3985 22.6606 14.5906 21.8287 14.021C20.9967 13.4513 20.012 13.1465 19.0037 13.1465C17.9955 13.1465 17.0108 13.4513 16.1788 14.021C15.3469 14.5906 14.7066 15.3985 14.3421 16.3385C13.9775 17.2786 13.9056 18.3069 14.1359 19.2885C14.3662 20.2701 14.8879 21.1592 15.6325 21.839C14.6518 22.2631 13.7609 22.8701 13.0075 23.6278C12.2541 22.8701 11.3632 22.2631 10.3825 21.839C11.1271 21.1592 11.6488 20.2701 11.8791 19.2885C12.1094 18.3069 12.0375 17.2786 11.6729 16.3385C11.3084 15.3985 10.6681 14.5906 9.83616 14.021C9.00423 13.4513 8.01952 13.1465 7.01125 13.1465C6.00298 13.1465 5.01827 13.4513 4.18634 14.021C3.35442 14.5906 2.71415 15.3985 2.34957 16.3385C1.98499 17.2786 1.91313 18.3069 2.14342 19.2885C2.37371 20.2701 2.89539 21.1592 3.64 21.839C2.27581 22.4261 1.08963 23.361 0.2 24.5502C0.121207 24.6553 0.0638779 24.7749 0.0312863 24.9021C-0.00130532 25.0293 -0.00852115 25.1617 0.0100506 25.2917C0.0286223 25.4217 0.072618 25.5467 0.139526 25.6597C0.206433 25.7727 0.294943 25.8715 0.4 25.9502C0.505058 26.029 0.624606 26.0864 0.751819 26.119C0.879032 26.1516 1.01142 26.1588 1.14142 26.1402C1.27142 26.1216 1.39649 26.0776 1.50949 26.0107C1.62249 25.9438 1.72121 25.8553 1.8 25.7502C2.40546 24.943 3.19055 24.2878 4.09311 23.8365C4.99567 23.3852 5.99091 23.1502 7 23.1502C8.00909 23.1502 9.00433 23.3852 9.90689 23.8365C10.8094 24.2878 11.5945 24.943 12.2 25.7502C12.3593 25.9622 12.5963 26.1023 12.8588 26.1395C13.1214 26.1768 13.388 26.1083 13.6 25.949C13.6756 25.8928 13.7425 25.8258 13.7987 25.7502C14.4042 24.943 15.1893 24.2878 16.0919 23.8365C16.9944 23.3852 17.9897 23.1502 18.9988 23.1502C20.0078 23.1502 21.0031 23.3852 21.9056 23.8365C22.8082 24.2878 23.5933 24.943 24.1987 25.7502C24.358 25.9624 24.5951 26.1026 24.8578 26.14C25.1204 26.1774 25.3872 26.1089 25.5994 25.9496C25.8115 25.7903 25.9518 25.5533 25.9891 25.2906C26.0265 25.0279 25.958 24.7612 25.7987 24.549C24.9136 23.3623 23.7332 22.428 22.375 21.839ZM7 15.1503C7.59334 15.1503 8.17336 15.3262 8.66671 15.6558C9.16006 15.9855 9.54458 16.454 9.77164 17.0022C9.9987 17.5504 10.0581 18.1536 9.94236 18.7355C9.8266 19.3175 9.54088 19.852 9.12132 20.2716C8.70176 20.6911 8.16721 20.9769 7.58527 21.0926C7.00333 21.2084 6.40013 21.149 5.85195 20.9219C5.30377 20.6948 4.83524 20.3103 4.50559 19.817C4.17595 19.3236 4 18.7436 4 18.1502C4 17.3546 4.31607 16.5915 4.87868 16.0289C5.44129 15.4663 6.20435 15.1503 7 15.1503ZM19 15.1503C19.5933 15.1503 20.1734 15.3262 20.6667 15.6558C21.1601 15.9855 21.5446 16.454 21.7716 17.0022C21.9987 17.5504 22.0581 18.1536 21.9424 18.7355C21.8266 19.3175 21.5409 19.852 21.1213 20.2716C20.7018 20.6911 20.1672 20.9769 19.5853 21.0926C19.0033 21.2084 18.4001 21.149 17.8519 20.9219C17.3038 20.6948 16.8352 20.3103 16.5056 19.817C16.1759 19.3236 16 18.7436 16 18.1502C16 17.3546 16.3161 16.5915 16.8787 16.0289C17.4413 15.4663 18.2044 15.1503 19 15.1503Z" fill="white"/>
</svg>
